<svg version="1.1" id="Layer_1" xmlns="http://www.w3.org/2000/svg" xmlns:xlink="http://www.w3.org/1999/xlink" x="0px" y="0px"
	 width="100%" viewBox="0 0 500 500" enable-background="new 0 0 500 500" xml:space="preserve">
<path fill="#000000" opacity="1.000000" stroke="none" 
	d="
M501.000000,270.000000 
	C501.000000,346.965118 501.000000,423.930267 501.000000,500.947693 
	C334.443695,500.947693 167.887375,500.947693 1.000000,500.947693 
	C1.000000,424.312225 1.000000,347.623962 1.465944,270.521881 
	C32.630005,270.171417 63.328121,270.234772 94.019798,270.744629 
	C94.013359,300.132721 94.013359,329.074310 94.013359,358.154175 
	C112.231163,358.154175 129.933868,358.154175 148.096024,358.154175 
	C148.096024,329.023621 148.096024,300.286743 148.096024,271.192993 
	C153.354218,271.192993 158.159271,271.296722 162.958374,271.171722 
	C173.419479,270.899231 183.877563,270.510315 194.847168,270.173462 
	C205.330383,270.158203 215.303345,270.108978 225.276215,270.124176 
	C254.526489,270.168671 283.776703,270.238800 313.020203,270.745300 
	C313.013428,300.135925 313.013428,329.080109 313.013428,358.141815 
	C331.241180,358.141815 348.941376,358.141815 366.931366,358.141815 
	C366.931366,328.586792 366.931366,299.440155 367.398285,270.213928 
	C412.243469,270.089569 456.621735,270.044769 501.000000,270.000000 
z"/>
<path fill="#000000" opacity="1.000000" stroke="none" 
	d="
M0.999999,231.000000 
	C1.000000,154.368179 1.000000,77.736343 1.000000,1.052259 
	C167.556076,1.052259 334.112183,1.052259 501.000000,1.052259 
	C501.000000,77.354446 501.000000,153.709381 500.558594,230.702606 
	C456.686340,231.356537 413.255524,231.374176 369.824677,231.374969 
	C368.839233,231.374985 367.853821,231.184174 366.872772,230.608337 
	C366.877167,210.234116 366.877167,190.333923 366.877167,169.980164 
	C385.905731,169.980164 404.144928,169.980164 422.482788,169.980164 
	C422.482788,154.121353 422.482788,138.728348 422.482788,123.266624 
	C367.279724,123.266624 312.390106,123.266624 256.925232,123.266624 
	C256.925232,138.129227 256.925232,152.731277 256.925232,168.565247 
	C249.741119,152.997803 244.586594,146.216629 235.480850,139.412842 
	C219.159500,127.217606 200.426178,123.097206 180.535675,123.025566 
	C153.217178,122.927177 125.898064,122.994797 98.579216,123.010483 
	C97.149010,123.011299 95.718895,123.191032 94.079140,123.301605 
	C94.079140,159.488571 94.079140,195.283432 93.622482,231.214478 
	C63.585670,231.363098 34.005508,231.379883 4.425348,231.371536 
	C3.283530,231.371216 2.141780,231.129333 0.999999,231.000000 
z"/>
<path fill="#FDF4F1" opacity="1.000000" stroke="none" 
	d="
M366.868378,231.082367 
	C367.853821,231.184174 368.839233,231.374985 369.824677,231.374969 
	C413.255524,231.374176 456.686340,231.356537 500.558594,231.170471 
	C501.000000,243.687561 501.000000,256.375122 501.000000,269.531342 
	C456.621735,270.044769 412.243469,270.089569 366.948181,270.128052 
	C348.363098,270.180786 330.695007,270.239838 313.026947,270.298859 
	C283.776703,270.238800 254.526489,270.168671 225.276215,270.124176 
	C215.303345,270.108978 205.330383,270.158203 194.471146,270.064423 
	C184.125702,270.001526 174.666611,270.069458 165.207397,270.099487 
	C141.480377,270.174866 117.753296,270.233063 94.026237,270.298157 
	C63.328121,270.234772 32.630005,270.171417 1.465944,270.054016 
	C1.000000,257.312439 1.000000,244.624878 0.999999,231.468658 
	C2.141780,231.129333 3.283530,231.371216 4.425348,231.371536 
	C34.005508,231.379883 63.585670,231.363098 94.080917,231.296082 
	C139.545929,231.247986 184.095840,231.264450 228.645767,231.251923 
	C236.785950,231.249634 244.926086,231.129303 253.513031,231.194366 
	C273.667328,231.243393 293.374847,231.161545 313.540222,231.161057 
	C331.621552,231.189087 349.244965,231.135727 366.868378,231.082367 
M170.811310,257.396301 
	C170.570328,254.657333 170.329346,251.918365 170.085785,249.150269 
	C170.175034,246.936478 171.271744,243.836807 170.176926,242.339264 
	C166.977295,237.962601 162.005569,239.298401 157.232025,239.567993 
	C157.232025,246.459488 157.232025,253.000381 157.232025,260.904175 
	C161.956741,259.856232 166.138611,258.928650 170.811310,257.396301 
M120.320847,258.140137 
	C121.272171,258.781830 122.223503,259.423523 123.174835,260.065216 
	C122.131699,255.156296 119.498459,251.418381 123.618355,246.715378 
	C125.523163,244.540970 123.726936,240.740021 120.042786,239.969070 
	C117.321968,239.399689 114.460342,239.383926 111.661514,239.384720 
	C110.897316,239.384933 109.460251,240.350708 109.471436,240.847717 
	C109.613472,247.160217 109.962860,253.468079 110.300438,259.774902 
	C110.301353,259.792084 110.904533,259.777039 111.756844,259.777039 
	C111.971771,257.021698 112.191795,254.201080 112.394333,251.604492 
	C118.363686,249.729233 118.548996,254.368378 120.320847,258.140137 
M193.010834,247.766068 
	C189.771286,247.766068 186.531754,247.766068 183.394531,247.766068 
	C183.016846,244.597931 182.701828,241.955475 182.386810,239.313019 
	C181.738510,239.385956 181.090210,239.458878 180.441895,239.531815 
	C179.940887,246.330429 179.355942,253.131073 180.753860,259.883850 
	C181.316086,259.916992 181.878326,259.950165 182.440552,259.983337 
	C182.771378,257.068420 183.102188,254.153534 183.432312,251.244843 
	C186.968460,251.244843 190.191696,251.244843 193.494064,251.244843 
	C193.792526,254.390366 194.056885,257.176666 194.388321,260.669678 
	C197.699600,256.765076 197.544708,242.322800 194.266953,239.017242 
	C194.024048,242.065720 193.822723,244.592300 193.010834,247.766068 
M402.933441,256.182373 
	C402.705658,250.590240 403.432343,244.886841 402.479279,239.379242 
	C401.773346,239.410889 401.067444,239.442535 400.361511,239.474182 
	C400.104187,242.270706 399.846893,245.067230 399.609619,247.646042 
	C395.849152,247.646042 392.612244,247.646042 389.441376,247.646042 
	C389.122101,244.636520 388.845917,242.033249 388.470093,238.490875 
	C385.141022,243.340103 385.481659,257.726746 388.677979,260.141541 
	C388.949005,257.001282 389.194611,254.155258 389.451813,251.174789 
	C392.986725,251.174789 396.220978,251.174789 399.712341,251.174789 
	C399.931000,254.273071 400.130035,257.092957 400.329041,259.912811 
	C400.841858,259.980804 401.354645,260.048798 401.867432,260.116791 
	C402.221497,259.110321 402.575562,258.103851 402.933441,256.182373 
M290.909698,239.358292 
	C283.048492,239.168457 283.048096,239.168457 283.047882,246.877457 
	C283.047791,250.195633 282.985840,253.515732 283.086975,256.830872 
	C283.119934,257.912079 283.580322,258.980316 283.845215,260.054474 
	C284.369995,260.037048 284.894775,260.019592 285.419586,260.002167 
	C285.720306,257.235413 286.021057,254.468643 286.324432,251.677795 
	C294.347412,248.646683 291.619507,259.079102 297.497894,260.079651 
	C296.668274,257.725586 295.825165,256.008636 295.501221,254.198776 
	C295.245209,252.768494 295.120087,250.914642 295.810944,249.782196 
	C299.364716,243.956985 298.391602,241.277740 290.909698,239.358292 
M220.106308,253.354538 
	C218.713226,249.457886 217.362762,245.545242 215.911041,241.670563 
	C215.041122,239.348740 213.083069,237.928787 211.812637,240.727341 
	C209.064804,246.780350 207.064468,253.172668 204.479355,260.182861 
	C207.805923,258.685272 219.095413,258.648834 222.271530,259.955811 
	C221.532089,257.682770 220.948288,255.888153 220.106308,253.354538 
M94.794373,239.519821 
	C92.029190,240.014709 87.588531,236.851318 87.139542,242.468628 
	C86.732193,247.565002 87.000656,252.721664 87.128128,257.847839 
	C87.147621,258.631866 88.014328,259.394836 88.489189,260.167511 
	C88.866714,260.058044 89.244232,259.948547 89.621750,259.839050 
	C89.846855,257.646820 90.071953,255.454575 90.308891,253.147034 
	C95.014946,252.079926 101.239456,253.230270 101.714920,246.165085 
	C101.971886,242.346588 99.446655,240.142853 94.794373,239.519821 
M326.697205,239.538132 
	C324.268616,239.538132 321.840057,239.538132 319.456146,239.538132 
	C319.456146,246.600189 319.456146,253.215790 319.456146,259.831390 
	C319.945801,259.913391 320.435486,259.995422 320.925140,260.077454 
	C321.433746,257.807190 321.942352,255.536942 322.484985,253.114822 
	C326.770538,252.016418 332.831146,253.307770 333.410278,246.408951 
	C333.741547,242.462845 331.305908,240.329727 326.697205,239.538132 
M132.803726,255.340408 
	C132.467255,256.764771 132.130783,258.189117 131.794312,259.613464 
	C135.302719,258.249969 135.699844,252.918793 140.245850,254.779022 
	C143.105820,255.949310 145.605713,257.999634 149.030731,260.130188 
	C146.584991,253.423172 144.440750,247.414429 142.164505,241.456116 
	C141.864670,240.671234 140.747116,239.520218 140.259186,239.632172 
	C139.345947,239.841736 138.226395,240.694244 137.876541,241.556702 
	C136.135544,245.848587 134.617249,250.230804 132.803726,255.340408 
M344.324860,255.230637 
	C349.911591,252.297470 352.947845,256.792725 356.575592,259.949707 
	C354.840942,253.428299 352.859497,247.468018 350.485107,241.668640 
	C350.137543,240.819748 346.766327,240.276917 346.731293,240.364868 
	C344.217804,246.668808 341.900940,253.051132 339.567993,259.427063 
	C340.164368,259.685577 340.760773,259.944092 341.357147,260.202606 
	C342.189789,258.774323 343.022400,257.346008 344.324860,255.230637 
M269.678589,256.131409 
	C269.678589,251.563629 269.678589,246.995850 269.678589,242.579254 
	C272.209991,242.082748 273.987549,241.734100 276.401154,241.260696 
	C272.080963,238.414703 262.692017,238.641937 259.864746,241.557068 
	C262.230804,241.852966 264.243195,242.104645 267.040955,242.454529 
	C267.040955,248.279694 267.040955,254.056534 267.040955,259.833374 
	C267.569916,259.913849 268.098877,259.994354 268.627838,260.074860 
	C268.976562,259.060486 269.325287,258.046082 269.678589,256.131409 
M234.617661,239.234360 
	C232.483871,239.420685 230.350082,239.607025 228.216293,239.793350 
	C228.266632,240.404984 228.316956,241.016602 228.367294,241.628220 
	C230.390320,241.871704 232.413361,242.115173 235.218353,242.452759 
	C235.218353,248.310318 235.218353,254.095520 235.218353,259.880737 
	C235.926804,259.908508 236.635254,259.936279 237.343704,259.964050 
	C237.343704,254.078064 237.343704,248.192093 237.343704,242.583755 
	C240.461960,242.079803 242.224319,241.794983 243.986664,241.510162 
	C243.970947,240.751709 243.955246,239.993256 243.939529,239.234802 
	C241.141937,239.234802 238.344360,239.234802 234.617661,239.234360 
M372.891663,251.465576 
	C372.891663,248.515640 372.891663,245.565720 372.891663,242.696564 
	C375.279541,242.155914 377.150116,241.732407 379.924957,241.104141 
	C374.406891,238.247162 365.344482,238.711899 363.247437,241.623734 
	C365.473480,241.897903 367.519409,242.149902 370.358948,242.499634 
	C370.358948,248.423752 370.358948,254.186325 370.358948,259.948914 
	C371.068237,259.963440 371.777557,259.977966 372.486847,259.992493 
	C372.621735,257.468750 372.756622,254.945023 372.891663,251.465576 
M413.510559,239.907928 
	C413.124847,240.168777 412.403412,240.428497 412.402557,240.690598 
	C412.381989,246.927460 412.428192,253.164749 412.534180,259.400757 
	C412.537292,259.583679 413.319336,259.753418 414.370911,260.194946 
	C414.370911,253.292618 414.370911,246.740814 413.510559,239.907928 
M306.830994,257.135925 
	C307.128845,258.045044 307.426727,258.954163 307.724609,259.863281 
	C307.964050,259.799408 308.203491,259.735504 308.442932,259.671600 
	C308.442932,253.184174 308.442932,246.696747 308.442932,240.209320 
	C307.903900,240.197800 307.364899,240.186295 306.825867,240.174774 
	C306.825867,245.516495 306.825867,250.858231 306.830994,257.135925 
z"/>
<path fill="#FC904D" opacity="1.000000" stroke="none" 
	d="
M94.019798,270.744629 
	C117.753296,270.233063 141.480377,270.174866 165.207397,270.099487 
	C174.666611,270.069458 184.125702,270.001526 193.960861,270.059906 
	C183.877563,270.510315 173.419479,270.899231 162.958374,271.171722 
	C158.159271,271.296722 153.354218,271.192993 148.096024,271.192993 
	C148.096024,300.286743 148.096024,329.023621 148.096024,358.154175 
	C129.933868,358.154175 112.231163,358.154175 94.013359,358.154175 
	C94.013359,329.074310 94.013359,300.132721 94.019798,270.744629 
z"/>
<path fill="#FC904C" opacity="1.000000" stroke="none" 
	d="
M313.020203,270.745300 
	C330.695007,270.239838 348.363098,270.180786 366.481262,270.207642 
	C366.931366,299.440155 366.931366,328.586792 366.931366,358.141815 
	C348.941376,358.141815 331.241180,358.141815 313.013428,358.141815 
	C313.013428,329.080109 313.013428,300.135925 313.020203,270.745300 
z"/>
<path fill="#FE904D" opacity="1.000000" stroke="none" 
	d="
M366.872772,230.608337 
	C349.244965,231.135727 331.621552,231.189087 313.535492,230.686462 
	C313.072845,210.231750 313.072845,190.332993 313.072845,170.353241 
	C294.051483,170.353241 275.792358,170.353241 257.389862,170.353241 
	C262.059784,191.161972 262.144379,211.450928 253.066254,231.063461 
	C244.926086,231.129303 236.785950,231.249634 228.645767,231.251923 
	C184.095840,231.264450 139.545929,231.247986 94.537567,231.159882 
	C94.079140,195.283432 94.079140,159.488571 94.079140,123.301605 
	C95.718895,123.191032 97.149010,123.011299 98.579216,123.010483 
	C125.898064,122.994797 153.217178,122.927177 180.535675,123.025566 
	C200.426178,123.097206 219.159500,127.217606 235.480850,139.412842 
	C244.586594,146.216629 249.741119,152.997803 256.925232,168.565247 
	C256.925232,152.731277 256.925232,138.129227 256.925232,123.266624 
	C312.390106,123.266624 367.279724,123.266624 422.482788,123.266624 
	C422.482788,138.728348 422.482788,154.121353 422.482788,169.980164 
	C404.144928,169.980164 385.905731,169.980164 366.877167,169.980164 
	C366.877167,190.333923 366.877167,210.234116 366.872772,230.608337 
M191.759079,221.335876 
	C207.334213,214.318024 209.324799,181.983383 190.770340,172.122589 
	C177.063507,164.838089 162.670120,165.950058 148.142151,165.960434 
	C148.142151,186.936432 148.142151,207.330368 148.142151,228.073700 
	C163.001602,228.252563 177.648865,229.148666 191.759079,221.335876 
z"/>
<path fill="#020101" opacity="1.000000" stroke="none" 
	d="
M253.513031,231.194366 
	C262.144379,211.450928 262.059784,191.161972 257.389862,170.353241 
	C275.792358,170.353241 294.051483,170.353241 313.072845,170.353241 
	C313.072845,190.332993 313.072845,210.231750 313.077576,230.605103 
	C293.374847,231.161545 273.667328,231.243393 253.513031,231.194366 
z"/>
<path fill="#FF9C60" opacity="1.000000" stroke="none" 
	d="
M170.565887,257.698700 
	C166.138611,258.928650 161.956741,259.856232 157.232025,260.904175 
	C157.232025,253.000381 157.232025,246.459488 157.232025,239.567993 
	C162.005569,239.298401 166.977295,237.962601 170.176926,242.339264 
	C171.271744,243.836807 170.175034,246.936478 170.085785,249.150269 
	C170.329346,251.918365 170.570328,254.657333 170.565887,257.698700 
M167.309662,251.787659 
	C164.973236,251.475723 162.636810,251.163788 160.109192,250.826324 
	C159.972794,252.638046 159.824570,253.615326 159.847214,254.588623 
	C159.869324,255.539200 160.065857,256.485718 160.174774,257.346649 
	C167.459839,258.392639 169.252090,257.167328 167.309662,251.787659 
M167.935440,246.346542 
	C168.039307,239.830750 163.516510,242.549973 160.171967,242.108398 
	C160.171967,244.269501 160.171967,245.982346 160.171967,248.581436 
	C162.925842,248.022400 165.212036,247.558289 167.935440,246.346542 
z"/>
<path fill="#FF9D62" opacity="1.000000" stroke="none" 
	d="
M120.184700,257.789429 
	C118.548996,254.368378 118.363686,249.729233 112.394333,251.604492 
	C112.191795,254.201080 111.971771,257.021698 111.756844,259.777039 
	C110.904533,259.777039 110.301353,259.792084 110.300438,259.774902 
	C109.962860,253.468079 109.613472,247.160217 109.471436,240.847717 
	C109.460251,240.350708 110.897316,239.384933 111.661514,239.384720 
	C114.460342,239.383926 117.321968,239.399689 120.042786,239.969070 
	C123.726936,240.740021 125.523163,244.540970 123.618355,246.715378 
	C119.498459,251.418381 122.131699,255.156296 123.174835,260.065216 
	C122.223503,259.423523 121.272171,258.781830 120.184700,257.789429 
M112.080963,246.340195 
	C112.516624,250.937851 116.000336,248.813049 118.030121,248.586533 
	C119.146912,248.461884 120.022438,246.175278 121.006737,244.863403 
	C119.405212,243.882523 117.914986,242.479950 116.175728,242.020905 
	C113.651344,241.354660 111.558006,242.080460 112.080963,246.340195 
z"/>
<path fill="#FFA168" opacity="1.000000" stroke="none" 
	d="
M193.316132,247.442474 
	C193.822723,244.592300 194.024048,242.065720 194.266953,239.017242 
	C197.544708,242.322800 197.699600,256.765076 194.388321,260.669678 
	C194.056885,257.176666 193.792526,254.390366 193.494064,251.244843 
	C190.191696,251.244843 186.968460,251.244843 183.432312,251.244843 
	C183.102188,254.153534 182.771378,257.068420 182.440552,259.983337 
	C181.878326,259.950165 181.316086,259.916992 180.753860,259.883850 
	C179.355942,253.131073 179.940887,246.330429 180.441895,239.531815 
	C181.090210,239.458878 181.738510,239.385956 182.386810,239.313019 
	C182.701828,241.955475 183.016846,244.597931 183.394531,247.766068 
	C186.531754,247.766068 189.771286,247.766068 193.316132,247.442474 
z"/>
<path fill="#FFA066" opacity="1.000000" stroke="none" 
	d="
M402.931549,256.639893 
	C402.575562,258.103851 402.221497,259.110321 401.867432,260.116791 
	C401.354645,260.048798 400.841858,259.980804 400.329041,259.912811 
	C400.130035,257.092957 399.931000,254.273071 399.712341,251.174789 
	C396.220978,251.174789 392.986725,251.174789 389.451813,251.174789 
	C389.194611,254.155258 388.949005,257.001282 388.677979,260.141541 
	C385.481659,257.726746 385.141022,243.340103 388.470093,238.490875 
	C388.845917,242.033249 389.122101,244.636520 389.441376,247.646042 
	C392.612244,247.646042 395.849152,247.646042 399.609619,247.646042 
	C399.846893,245.067230 400.104187,242.270706 400.361511,239.474182 
	C401.067444,239.442535 401.773346,239.410889 402.479279,239.379242 
	C403.432343,244.886841 402.705658,250.590240 402.931549,256.639893 
z"/>
<path fill="#FF9A5C" opacity="1.000000" stroke="none" 
	d="
M291.317322,239.430954 
	C298.391602,241.277740 299.364716,243.956985 295.810944,249.782196 
	C295.120087,250.914642 295.245209,252.768494 295.501221,254.198776 
	C295.825165,256.008636 296.668274,257.725586 297.497894,260.079651 
	C291.619507,259.079102 294.347412,248.646683 286.324432,251.677795 
	C286.021057,254.468643 285.720306,257.235413 285.419586,260.002167 
	C284.894775,260.019592 284.369995,260.037048 283.845215,260.054474 
	C283.580322,258.980316 283.119934,257.912079 283.086975,256.830872 
	C282.985840,253.515732 283.047791,250.195633 283.047882,246.877457 
	C283.048096,239.168457 283.048492,239.168457 291.317322,239.430954 
M294.830231,246.187164 
	C294.002075,241.588654 292.384949,240.938660 286.220123,242.741394 
	C286.220123,244.645477 286.220123,246.553558 286.220123,249.833206 
	C289.395966,248.726349 291.958405,247.833267 294.830231,246.187164 
z"/>
<path fill="#FF9A5B" opacity="1.000000" stroke="none" 
	d="
M220.235413,253.724045 
	C220.948288,255.888153 221.532089,257.682770 222.271530,259.955811 
	C219.095413,258.648834 207.805923,258.685272 204.479355,260.182861 
	C207.064468,253.172668 209.064804,246.780350 211.812637,240.727341 
	C213.083069,237.928787 215.041122,239.348740 215.911041,241.670563 
	C217.362762,245.545242 218.713226,249.457886 220.235413,253.724045 
M212.186935,245.966461 
	C211.612686,247.807022 211.038422,249.647583 210.376144,251.770264 
	C212.611786,251.770264 214.514206,251.770264 216.820557,251.770264 
	C215.745972,248.793579 214.786163,246.134796 213.637955,242.954132 
	C213.035324,244.157257 212.746567,244.733780 212.186935,245.966461 
z"/>
<path fill="#FF9B5E" opacity="1.000000" stroke="none" 
	d="
M95.191490,239.610535 
	C99.446655,240.142853 101.971886,242.346588 101.714920,246.165085 
	C101.239456,253.230270 95.014946,252.079926 90.308891,253.147034 
	C90.071953,255.454575 89.846855,257.646820 89.621750,259.839050 
	C89.244232,259.948547 88.866714,260.058044 88.489189,260.167511 
	C88.014328,259.394836 87.147621,258.631866 87.128128,257.847839 
	C87.000656,252.721664 86.732193,247.565002 87.139542,242.468628 
	C87.588531,236.851318 92.029190,240.014709 95.191490,239.610535 
M98.952484,245.577820 
	C97.623024,240.647949 93.890701,242.074203 90.282478,242.162430 
	C90.282478,244.791367 90.282478,247.174500 90.282478,249.819626 
	C93.902725,249.963318 97.584435,251.246643 98.952484,245.577820 
z"/>
<path fill="#FF9A5B" opacity="1.000000" stroke="none" 
	d="
M327.097900,239.627426 
	C331.305908,240.329727 333.741547,242.462845 333.410278,246.408951 
	C332.831146,253.307770 326.770538,252.016418 322.484985,253.114822 
	C321.942352,255.536942 321.433746,257.807190 320.925140,260.077454 
	C320.435486,259.995422 319.945801,259.913391 319.456146,259.831390 
	C319.456146,253.215790 319.456146,246.600189 319.456146,239.538132 
	C321.840057,239.538132 324.268616,239.538132 327.097900,239.627426 
M327.815735,249.879303 
	C328.705261,248.035110 329.594818,246.190933 330.484344,244.346741 
	C327.915436,243.303375 325.346527,242.260010 322.223572,240.991623 
	C322.223572,245.005219 322.223572,247.366669 322.223572,250.010361 
	C324.056763,250.010361 325.518860,250.010361 327.815735,249.879303 
z"/>
<path fill="#FF9A5B" opacity="1.000000" stroke="none" 
	d="
M132.912140,254.960815 
	C134.617249,250.230804 136.135544,245.848587 137.876541,241.556702 
	C138.226395,240.694244 139.345947,239.841736 140.259186,239.632172 
	C140.747116,239.520218 141.864670,240.671234 142.164505,241.456116 
	C144.440750,247.414429 146.584991,253.423172 149.030731,260.130188 
	C145.605713,257.999634 143.105820,255.949310 140.245850,254.779022 
	C135.699844,252.918793 135.302719,258.249969 131.794312,259.613464 
	C132.130783,258.189117 132.467255,256.764771 132.912140,254.960815 
M137.989716,251.881775 
	C139.580246,251.881775 141.170776,251.881775 143.464676,251.881775 
	C142.300934,248.855972 141.377319,246.454468 140.453690,244.052963 
	C140.066620,244.094452 139.679565,244.135956 139.292496,244.177444 
	C138.622391,246.623047 137.952286,249.068665 137.989716,251.881775 
z"/>
<path fill="#FF995A" opacity="1.000000" stroke="none" 
	d="
M344.089935,255.574158 
	C343.022400,257.346008 342.189789,258.774323 341.357147,260.202606 
	C340.760773,259.944092 340.164368,259.685577 339.567993,259.427063 
	C341.900940,253.051132 344.217804,246.668808 346.731293,240.364868 
	C346.766327,240.276917 350.137543,240.819748 350.485107,241.668640 
	C352.859497,247.468018 354.840942,253.428299 356.575592,259.949707 
	C352.947845,256.792725 349.911591,252.297470 344.089935,255.574158 
M348.559021,243.622559 
	C347.315674,246.176361 346.072296,248.730179 344.674744,251.600739 
	C347.266479,251.600739 349.095520,251.600739 351.474945,251.600739 
	C350.517548,248.786026 349.735870,246.487885 348.559021,243.622559 
z"/>
<path fill="#FF9C5F" opacity="1.000000" stroke="none" 
	d="
M269.676300,256.581543 
	C269.325287,258.046082 268.976562,259.060486 268.627838,260.074860 
	C268.098877,259.994354 267.569916,259.913849 267.040955,259.833374 
	C267.040955,254.056534 267.040955,248.279694 267.040955,242.454529 
	C264.243195,242.104645 262.230804,241.852966 259.864746,241.557068 
	C262.692017,238.641937 272.080963,238.414703 276.401154,241.260696 
	C273.987549,241.734100 272.209991,242.082748 269.678589,242.579254 
	C269.678589,246.995850 269.678589,251.563629 269.676300,256.581543 
z"/>
<path fill="#FFA066" opacity="1.000000" stroke="none" 
	d="
M235.082214,239.234589 
	C238.344360,239.234802 241.141937,239.234802 243.939529,239.234802 
	C243.955246,239.993256 243.970947,240.751709 243.986664,241.510162 
	C242.224319,241.794983 240.461960,242.079803 237.343704,242.583755 
	C237.343704,248.192093 237.343704,254.078064 237.343704,259.964050 
	C236.635254,259.936279 235.926804,259.908508 235.218353,259.880737 
	C235.218353,254.095520 235.218353,248.310318 235.218353,242.452759 
	C232.413361,242.115173 230.390320,241.871704 228.367294,241.628220 
	C228.316956,241.016602 228.266632,240.404984 228.216293,239.793350 
	C230.350082,239.607025 232.483871,239.420685 235.082214,239.234589 
z"/>
<path fill="#FFA066" opacity="1.000000" stroke="none" 
	d="
M372.891602,251.943420 
	C372.756622,254.945023 372.621735,257.468750 372.486847,259.992493 
	C371.777557,259.977966 371.068237,259.963440 370.358948,259.948914 
	C370.358948,254.186325 370.358948,248.423752 370.358948,242.499634 
	C367.519409,242.149902 365.473480,241.897903 363.247437,241.623734 
	C365.344482,238.711899 374.406891,238.247162 379.924957,241.104141 
	C377.150116,241.732407 375.279541,242.155914 372.891663,242.696564 
	C372.891663,245.565720 372.891663,248.515640 372.891602,251.943420 
z"/>
<path fill="#FF9C60" opacity="1.000000" stroke="none" 
	d="
M413.940735,240.048477 
	C414.370911,246.740814 414.370911,253.292618 414.370911,260.194946 
	C413.319336,259.753418 412.537292,259.583679 412.534180,259.400757 
	C412.428192,253.164749 412.381989,246.927460 412.402557,240.690598 
	C412.403412,240.428497 413.124847,240.168777 413.940735,240.048477 
z"/>
<path fill="#FE904D" opacity="1.000000" stroke="none" 
	d="
M306.828430,256.667938 
	C306.825867,250.858231 306.825867,245.516495 306.825867,240.174774 
	C307.364899,240.186295 307.903900,240.197800 308.442932,240.209320 
	C308.442932,246.696747 308.442932,253.184174 308.442932,259.671600 
	C308.203491,259.735504 307.964050,259.799408 307.724609,259.863281 
	C307.426727,258.954163 307.128845,258.045044 306.828430,256.667938 
z"/>
<path fill="#010100" opacity="1.000000" stroke="none" 
	d="
M191.445221,221.534973 
	C177.648865,229.148666 163.001602,228.252563 148.142151,228.073700 
	C148.142151,207.330368 148.142151,186.936432 148.142151,165.960434 
	C162.670120,165.950058 177.063507,164.838089 190.770340,172.122589 
	C209.324799,181.983383 207.334213,214.318024 191.445221,221.534973 
z"/>
<path fill="#FDF1EC" opacity="1.000000" stroke="none" 
	d="
M167.613831,252.053467 
	C169.252090,257.167328 167.459839,258.392639 160.174774,257.346649 
	C160.065857,256.485718 159.869324,255.539200 159.847214,254.588623 
	C159.824570,253.615326 159.972794,252.638046 160.109192,250.826324 
	C162.636810,251.163788 164.973236,251.475723 167.613831,252.053467 
z"/>
<path fill="#FDF4F2" opacity="1.000000" stroke="none" 
	d="
M167.716827,246.720367 
	C165.212036,247.558289 162.925842,248.022400 160.171967,248.581436 
	C160.171967,245.982346 160.171967,244.269501 160.171967,242.108398 
	C163.516510,242.549973 168.039307,239.830750 167.716827,246.720367 
z"/>
<path fill="#FDF2EF" opacity="1.000000" stroke="none" 
	d="
M112.078751,245.903076 
	C111.558006,242.080460 113.651344,241.354660 116.175728,242.020905 
	C117.914986,242.479950 119.405212,243.882523 121.006737,244.863403 
	C120.022438,246.175278 119.146912,248.461884 118.030121,248.586533 
	C116.000336,248.813049 112.516624,250.937851 112.078751,245.903076 
z"/>
<path fill="#FDF2EF" opacity="1.000000" stroke="none" 
	d="
M294.675537,246.563660 
	C291.958405,247.833267 289.395966,248.726349 286.220123,249.833206 
	C286.220123,246.553558 286.220123,244.645477 286.220123,242.741394 
	C292.384949,240.938660 294.002075,241.588654 294.675537,246.563660 
z"/>
<path fill="#FDF1EC" opacity="1.000000" stroke="none" 
	d="
M212.322372,245.638367 
	C212.746567,244.733780 213.035324,244.157257 213.637955,242.954132 
	C214.786163,246.134796 215.745972,248.793579 216.820557,251.770264 
	C214.514206,251.770264 212.611786,251.770264 210.376144,251.770264 
	C211.038422,249.647583 211.612686,247.807022 212.322372,245.638367 
z"/>
<path fill="#FDF4F2" opacity="1.000000" stroke="none" 
	d="
M98.950439,245.983551 
	C97.584435,251.246643 93.902725,249.963318 90.282478,249.819626 
	C90.282478,247.174500 90.282478,244.791367 90.282478,242.162430 
	C93.890701,242.074203 97.623024,240.647949 98.950439,245.983551 
z"/>
<path fill="#FDF2EF" opacity="1.000000" stroke="none" 
	d="
M327.398346,249.944824 
	C325.518860,250.010361 324.056763,250.010361 322.223572,250.010361 
	C322.223572,247.366669 322.223572,245.005219 322.223572,240.991623 
	C325.346527,242.260010 327.915436,243.303375 330.484344,244.346741 
	C329.594818,246.190933 328.705261,248.035110 327.398346,249.944824 
z"/>
<path fill="#FDEDE5" opacity="1.000000" stroke="none" 
	d="
M137.635956,251.698029 
	C137.952286,249.068665 138.622391,246.623047 139.292496,244.177444 
	C139.679565,244.135956 140.066620,244.094452 140.453690,244.052963 
	C141.377319,246.454468 142.300934,248.855972 143.464676,251.881775 
	C141.170776,251.881775 139.580246,251.881775 137.635956,251.698029 
z"/>
<path fill="#FDEDE5" opacity="1.000000" stroke="none" 
	d="
M348.756592,243.906158 
	C349.735870,246.487885 350.517548,248.786026 351.474945,251.600739 
	C349.095520,251.600739 347.266479,251.600739 344.674744,251.600739 
	C346.072296,248.730179 347.315674,246.176361 348.756592,243.906158 
z"/>
</svg>